<svg viewBox="0 0 19 19" fill="none" xmlns="http://www.w3.org/2000/svg">
<g clip-path="url(#clip0)">
<path d="M16.648 3.72787C15.5043 2.25997 14.3699 1.35361 14.3221 1.31576C14.106 1.14432 13.8003 1.14432 13.5841 1.31576C12.9354 1.83032 11.9355 2.83235 11.1369 3.88611C9.39609 1.60974 7.57187 0.188341 7.48804 0.123548C7.27418 -0.0416627 6.97578 -0.0416998 6.76196 0.123548C6.69301 0.176837 5.05389 1.45255 3.39573 3.52522C1.4761 5.92478 0 8.81519 0 11.8746C0 15.8034 3.19627 18.9996 7.125 18.9996C10.0113 18.9996 12.4912 17.285 13.6093 14.8311C16.5495 15.0346 19 12.6382 19 9.67776C19 7.75995 18.1867 5.7025 16.648 3.72787ZM7.125 17.8121C3.85106 17.8121 1.1875 15.1486 1.1875 11.8746C1.1875 7.89989 4.14074 3.9208 7.12519 1.36348C7.76722 1.91333 9.1547 3.18637 10.4255 4.91715C9.42808 6.51746 8.90625 8.14233 8.90625 9.67776C8.90625 11.9732 10.3768 13.9234 12.4042 14.5942C11.3954 16.543 9.35104 17.8121 7.125 17.8121ZM13.9531 13.6559C11.8251 13.6559 10.0938 11.8713 10.0938 9.67776C10.0938 6.37329 12.923 3.50195 13.9531 2.56631C14.9836 3.50236 17.8125 6.37355 17.8125 9.67776C17.8125 11.8713 16.0812 13.6559 13.9531 13.6559Z" fill="black"/>
</g>
<defs>
<clipPath id="clip0">
<rect width="19" height="19" fill="white"/>
</clipPath>
</defs>
</svg>
