<?xml version="1.0" encoding="UTF-8" standalone="no"?>
<svg
   xmlns:dc="http://purl.org/dc/elements/1.1/"
   xmlns:cc="http://creativecommons.org/ns#"
   xmlns:rdf="http://www.w3.org/1999/02/22-rdf-syntax-ns#"
   xmlns:svg="http://www.w3.org/2000/svg"
   xmlns="http://www.w3.org/2000/svg"
   xmlns:xlink="http://www.w3.org/1999/xlink"
   viewBox="0 0 241.459 237.609"
   height="237.60899"
   width="241.459"
   id="svg10"
   version="1.1">
  <metadata
     id="metadata16">
    <rdf:RDF>
      <cc:Work
         rdf:about="">
        <dc:format>image/svg+xml</dc:format>
        <dc:type
           rdf:resource="http://purl.org/dc/dcmitype/StillImage" />
        <dc:title></dc:title>
      </cc:Work>
    </rdf:RDF>
  </metadata>
  <defs
     id="defs14">
    <linearGradient
       id="linearGradient966">
      <stop
         id="stop962"
         offset="0"
         style="stop-color:#4f772d;stop-opacity:1" />
      <stop
         style="stop-color:#31572c;stop-opacity:1"
         offset="0.50919211"
         id="stop970" />
      <stop
         id="stop964"
         offset="1"
         style="stop-color:#132a13;stop-opacity:1" />
    </linearGradient>
    <linearGradient
       gradientTransform="translate(-120,79.333313)"
       gradientUnits="userSpaceOnUse"
       y2="255"
       x2="195"
       y1="180"
       x1="120"
       id="linearGradient968"
       xlink:href="#linearGradient966" />
    <linearGradient
       gradientTransform="matrix(0.66666667,0,0,0.66666667,-50,239.33332)"
       gradientUnits="userSpaceOnUse"
       y2="255"
       x2="195"
       y1="180"
       x1="120"
       id="linearGradient968-2"
       xlink:href="#linearGradient966" />
    <linearGradient
       gradientTransform="matrix(0.33333338,0,0,0.33333338,14.99999,374.3333)"
       gradientUnits="userSpaceOnUse"
       y2="255"
       x2="195"
       y1="180"
       x1="120"
       id="linearGradient968-2-6"
       xlink:href="#linearGradient966" />
  </defs>
  <g
     transform="translate(0,-237.05766)"
     style="display:inline"
     id="layer7">
    <path
       id="path4701"
       d="m 170.73242,237.11588 c -22.42218,-0.40847 -41.51164,1.2358 -57.18164,7.59766 C 97.88079,251.07539 85,265.83489 85,283.55924 v 191.10742 h 30 V 283.55924 c 0,-6.09835 0.96721,-7.45017 9.83594,-11.05078 8.86873,-3.60061 25.00945,-5.76898 45.34961,-5.39844 17.17631,0.3129 25.96409,6.75328 32.26757,15.24023 6.30349,8.48696 9.00586,20.07309 9.00586,26.76368 0,6.25 -2.9769,18.77142 -10.46289,28.1289 -7.48598,9.35748 -18.53711,16.8711 -39.53711,16.8711 h -30 v 30 h 30 c 29,0 50.44888,-12.48834 62.9629,-28.13086 12.51401,-15.64252 17.0371,-33.11914 17.0371,-46.86914 0,-13.30942 -3.91594,-29.83406 -14.92187,-44.65235 -11.00593,-14.81829 -30.21866,-26.8796 -55.80469,-27.3457 z"
       style="color:#000000;font-style:normal;font-variant:normal;font-weight:normal;font-stretch:normal;font-size:medium;line-height:normal;font-family:sans-serif;font-variant-ligatures:normal;font-variant-position:normal;font-variant-caps:normal;font-variant-numeric:normal;font-variant-alternates:normal;font-feature-settings:normal;text-indent:0;text-align:start;text-decoration:none;text-decoration-line:none;text-decoration-style:solid;text-decoration-color:#000000;letter-spacing:normal;word-spacing:normal;text-transform:none;writing-mode:lr-tb;direction:ltr;text-orientation:mixed;dominant-baseline:auto;baseline-shift:baseline;text-anchor:start;white-space:normal;shape-padding:0;clip-rule:nonzero;display:inline;overflow:visible;visibility:visible;opacity:1;isolation:auto;mix-blend-mode:normal;color-interpolation:sRGB;color-interpolation-filters:linearRGB;solid-color:#000000;solid-opacity:1;vector-effect:none;fill:#000000;fill-opacity:1;fill-rule:nonzero;stroke:none;stroke-width:30;stroke-linecap:butt;stroke-linejoin:miter;stroke-miterlimit:4;stroke-dasharray:none;stroke-dashoffset:0;stroke-opacity:1;color-rendering:auto;image-rendering:auto;shape-rendering:auto;text-rendering:auto;enable-background:accumulate" />
    <path
       id="path15"
       d="m 195,397.16666 c -7.2,0 -17.54806,-0.9123 -28.52344,3.87695 -10.97537,4.78926 -19.97656,18.16151 -19.97656,34.62305 0,16.46154 8.59607,29.4701 18.9082,34.41992 10.31213,4.94982 20.0418,4.08008 24.5918,4.08008 h 5 v -27 h -5 c -5.45,0 -10.72033,-0.36974 -12.9082,-1.41992 -2.18787,-1.05018 -3.5918,-0.54162 -3.5918,-10.08008 0,-9.53846 0.99881,-8.66621 3.77344,-9.87695 2.77462,-1.21075 9.92656,-1.62305 17.72656,-1.62305 h 11.5 v 50.5 h 27 v -77.5 z"
       style="color:#000000;font-style:normal;font-variant:normal;font-weight:normal;font-stretch:normal;font-size:medium;line-height:normal;font-family:sans-serif;font-variant-ligatures:normal;font-variant-position:normal;font-variant-caps:normal;font-variant-numeric:normal;font-variant-alternates:normal;font-feature-settings:normal;text-indent:0;text-align:start;text-decoration:none;text-decoration-line:none;text-decoration-style:solid;text-decoration-color:#000000;letter-spacing:normal;word-spacing:normal;text-transform:none;writing-mode:lr-tb;direction:ltr;text-orientation:mixed;dominant-baseline:auto;baseline-shift:baseline;text-anchor:start;white-space:normal;shape-padding:0;clip-rule:nonzero;display:inline;overflow:visible;visibility:visible;opacity:1;isolation:auto;mix-blend-mode:normal;color-interpolation:sRGB;color-interpolation-filters:linearRGB;solid-color:#000000;solid-opacity:1;vector-effect:none;fill:#000000;fill-opacity:1;fill-rule:nonzero;stroke:none;stroke-width:27;stroke-linecap:butt;stroke-linejoin:miter;stroke-miterlimit:4;stroke-dasharray:none;stroke-dashoffset:0;stroke-opacity:1;color-rendering:auto;image-rendering:auto;shape-rendering:auto;text-rendering:auto;enable-background:accumulate" />
  </g>
  <g
     transform="translate(0,-237.05766)"
     id="layer1">
    <path
       id="rect895"
       d="m 0,259.33332 v 28.125 c 0,23.79808 23.07692,46.875 46.875,46.875 H 75 v -28.125 c 0,-23.79808 -23.07692,-46.875 -46.875,-46.875 z"
       style="display:inline;fill:url(#linearGradient968);fill-opacity:1;fill-rule:nonzero;stroke:none;stroke-width:1.15384996;stroke-opacity:1" />
    <path
       id="rect895-3"
       d="m 30,359.33332 v 18.75 c 0,15.86539 15.38461,31.25 31.25,31.25 H 80 v -18.75 c 0,-15.86539 -15.38461,-31.25 -31.25,-31.25 z"
       style="display:inline;fill:url(#linearGradient968-2);fill-opacity:1;fill-rule:nonzero;stroke:none;stroke-width:0.76923329;stroke-opacity:1" />
    <path
       id="rect895-3-6"
       d="m 55,434.33332 v 9.375 c 0,7.93269 7.6923,15.625 15.625,15.625 H 80 v -9.375 c 0,-7.9327 -7.69231,-15.625 -15.625,-15.625 z"
       style="display:inline;fill:url(#linearGradient968-2-6);fill-opacity:1;fill-rule:nonzero;stroke:none;stroke-width:0.3846167;stroke-opacity:1" />
  </g>
</svg>
