<svg width="65" height="65" viewBox="0 0 65 65" fill="none" xmlns="http://www.w3.org/2000/svg">
<rect width="65" height="65" fill="#4F772D"/>
<path d="M45.6874 33H34.5469C34.2467 32.3335 32.4033 27.911 34.0358 23.2754C34.1549 23.3497 34.2788 23.4178 34.408 23.4783C34.4197 23.4836 34.4313 23.4889 34.443 23.4941L38.7512 25.3817C39.6659 25.7825 40.6313 25.9755 41.5879 25.9755C43.6862 25.9755 45.7407 25.0462 47.1177 23.3421L50.0738 19.6837C50.0819 19.6737 50.0898 19.6636 50.0975 19.6535C50.7433 18.813 50.9706 17.7438 50.7211 16.7204C50.4715 15.697 49.7778 14.8523 48.8176 14.4032C48.806 14.3978 48.7944 14.3926 48.7827 14.3874L44.4745 12.4998C41.553 11.2198 38.1126 12.0586 36.108 14.5394L34.7379 16.235L34.5374 14.7403C34.1134 11.579 31.6094 9.07501 28.4482 8.65109L23.7864 8.0258C23.7738 8.02404 23.7611 8.02257 23.7484 8.02121C22.6946 7.90549 21.6631 8.2672 20.9182 9.01222C20.1733 9.75704 19.8121 10.7887 19.9272 11.8424C19.9286 11.8551 19.9302 11.8678 19.9318 11.8804L20.5571 16.5422C20.9811 19.7035 23.4851 22.2075 26.6463 22.6314L30.7853 23.1866C29.6436 27.2719 30.5141 31.0143 31.1931 33H20.6875C18.1028 33 16 35.1028 16 37.6875C16 39.7244 17.3063 41.4612 19.125 42.1062V46.6718C19.125 52.9181 24.2068 57.9999 30.4531 57.9999H35.9218C42.1681 57.9999 47.2499 52.9181 47.2499 46.6718V42.1062C49.0685 41.4612 50.3749 39.7245 50.3749 37.6875C50.3749 35.1027 48.272 33 45.6874 33ZM35.599 20.1417L38.5388 16.5035C39.6606 15.1153 41.5857 14.6458 43.2206 15.3621L47.5048 17.2391C47.6235 17.2988 47.6684 17.3919 47.6851 17.4604C47.7018 17.529 47.7048 17.6322 47.6267 17.7399L44.6871 21.3779C43.5653 22.7662 41.6402 23.2357 40.0053 22.5192L35.7211 20.6422C35.6024 20.5825 35.5574 20.4894 35.5407 20.4209C35.524 20.3525 35.5211 20.2493 35.599 20.1417ZM23.6544 16.1267L23.0326 11.4908C23.0219 11.3584 23.0781 11.2717 23.1279 11.2219C23.1778 11.1721 23.2645 11.1157 23.3968 11.1266L28.0328 11.7483C29.8017 11.9856 31.203 13.3868 31.4403 15.1558L32.062 19.7917C32.0727 19.9241 32.0165 20.0109 31.9667 20.0607C31.9168 20.1106 31.8304 20.1671 31.6977 20.156L27.0619 19.5342C25.2929 19.2968 23.8917 17.8957 23.6544 16.1267ZM44.1249 46.6718C44.1249 51.1951 40.445 54.8749 35.9218 54.8749H30.4531C25.9298 54.8749 22.25 51.1951 22.25 46.6718V42.375H44.1249V46.6718ZM45.6874 39.25H20.6875C19.826 39.25 19.125 38.549 19.125 37.6875C19.125 36.826 19.826 36.125 20.6875 36.125H45.6874C46.5489 36.125 47.2499 36.826 47.2499 37.6875C47.2499 38.549 46.5489 39.25 45.6874 39.25Z" fill="black"/>
</svg>
