<svg viewBox="0 0 19 19" fill="none" xmlns="http://www.w3.org/2000/svg">
<path d="M11.875 12.7822V2.375C11.875 1.06519 10.8098 0 9.5 0C8.19019 0 7.125 1.06519 7.125 2.375V12.7822C6.36619 13.4591 5.9375 14.4115 5.9375 15.4375C5.9375 17.4016 7.53587 19 9.5 19C11.4641 19 13.0625 17.4016 13.0625 15.4375C13.0625 14.4115 12.6338 13.4591 11.875 12.7822ZM9.5 17.8125C8.19019 17.8125 7.125 16.7473 7.125 15.4375C7.125 14.6846 7.47175 13.9923 8.07619 13.5363C8.22463 13.4247 8.3125 13.2489 8.3125 13.0625V2.375C8.3125 1.72069 8.84569 1.1875 9.5 1.1875C10.1543 1.1875 10.6875 1.72069 10.6875 2.375V13.0625C10.6875 13.2489 10.7742 13.4247 10.9238 13.5363C11.5283 13.9923 11.875 14.6846 11.875 15.4375C11.875 16.7473 10.8098 17.8125 9.5 17.8125Z" fill="black"/>
<path d="M11.2812 5.9375H10.0938C9.766 5.9375 9.5 6.2035 9.5 6.53125C9.5 6.859 9.766 7.125 10.0938 7.125H11.2812C11.609 7.125 11.875 6.859 11.875 6.53125C11.875 6.2035 11.609 5.9375 11.2812 5.9375Z" fill="black"/>
<path d="M11.2812 9.5H10.0938C9.766 9.5 9.5 9.766 9.5 10.0938C9.5 10.4215 9.766 10.6875 10.0938 10.6875H11.2812C11.609 10.6875 11.875 10.4215 11.875 10.0938C11.875 9.766 11.609 9.5 11.2812 9.5Z" fill="black"/>
</svg>

